# xmcd CD database file
#
# Track frame offsets:
#	150
#	18672
#	34465
#	55373
#	75788
#	101149
#	120619
#	135804
#	150210
#	165736
#
# Disc length: 2473 seconds
#
# Revision: 5
# Processed by: cddbd v1.5.1PL0 Copyright (c) Steve Scherf et al.
# Submitted via: CDex 1.51
#
DISCID=7009a70a
DTITLE=Phoebe Snow - Best Of
DYEAR=1987
DGENRE=Blues
TTITLE0=Two-Fisted Love
TTITLE1=All Over
TTITLE2=Poetry Man
TTITLE3=Teach Me Tonight
TTITLE4=Don't Let Me Down
TTITLE5=Shakey Ground
TTITLE6=Love Makes A Woman
TTITLE7=Never Letting Go
TTITLE8=Every Night
TTITLE9=Harpo's Blues
EXTD=YEAR: 1987
EXTT0=
EXTT1=
EXTT2=
EXTT3=
EXTT4=
EXTT5=
EXTT6=
EXTT7=
EXTT8=
EXTT9=
PLAYORDER=
